<svg id="Layer_1" enable-background="new 0 0 509.71 509.71" height="512" viewBox="0 0 509.71 509.71" width="512" xmlns="http://www.w3.org/2000/svg"><g><path d="m494.255 285.28-149.78 159.29-88.97-27.13-.65.18-16.149-195.335 16.149-222.285 42.84 80.92 53.94-25.12-20.38 189.84 57.27-66.08 8.81 44.05 69.75-18.97-16.89 71.83z" fill="#ff884d"/><path d="m254.855 0v417.62l-97.02 26.95-142.38-159.29 44.05-8.81-16.88-71.83 69.75 18.97 8.81-44.05 57.27 66.08-20.38-189.84 54.07 25.12z" fill="#ffc34d"/><path d="m339.825 354.42-69.37 55.5v99.79h-15.6l-9.733-113.52 9.733-98.48h15.6v73.79l50.63-40.5z" fill="#ffc34d"/><path d="m254.855 297.71v212h-14.4v-99.79l-69.37-55.5 18.74-23.42 50.63 40.5v-73.79z" fill="#ffff80"/></g></svg>